{
  "accessors": [
    {
      "bufferView": 2,
      "componentType": 5126,
      "count": 4,
      "max": [
        0.3333333432674408,
        0.0,
        0.5
      ],
      "min": [
        -0.3333333432674408,
        0.0,
        -0.5
      ],
      "type": "VEC3"
    },
    {
      "bufferView": 2,
      "byteOffset": 48,
      "componentType": 5126,
      "count": 4,
      "max": [
        0.0,
        1.0,
        -0.0
      ],
      "min": [
        0.0,
        1.0,
        -0.0
      ],
      "type": "VEC3"
    },
    {
      "bufferView": 1,
      "componentType": 5126,
      "count": 4,
      "max": [
        1.0,
        1.0
      ],
      "min": [
        0.0,
        0.0
      ],
      "type": "VEC2"
    },
    {
      "bufferView": 0,
      "componentType": 5125,
      "count": 6,
      "type": "SCALAR"
    },
    {
      "bufferView": 2,
      "byteOffset": 96,
      "componentType": 5126,
      "count": 208,
      "max": [
        0.3333333432674408,
        2.479016547596302e-09,
        0.5
      ],
      "min": [
        -0.3333333432674408,
        -0.005000004079192877,
        -0.5171421766281128
      ],
      "type": "VEC3"
    },
    {
      "bufferView": 2,
      "byteOffset": 2592,
      "componentType": 5126,
      "count": 208,
      "max": [
        1.0,
        1.0,
        1.0
      ],
      "min": [
        -1.0,
        -1.0,
        -1.0
      ],
      "type": "VEC3"
    },
    {
      "bufferView": 1,
      "byteOffset": 32,
      "componentType": 5126,
      "count": 208,
      "max": [
        1.0,
        1.0
      ],
      "min": [
        0.0,
        0.0
      ],
      "type": "VEC2"
    },
    {
      "bufferView": 0,
      "byteOffset": 24,
      "componentType": 5125,
      "count": 408,
      "type": "SCALAR"
    },
    {
      "bufferView": 2,
      "byteOffset": 5088,
      "componentType": 5126,
      "count": 726,
      "max": [
        0.011274868622422218,
        0.1463077813386917,
        0.0512973889708519
      ],
      "min": [
        -2.411208152770996,
        -0.11725924164056778,
        -0.3308296799659729
      ],
      "type": "VEC3"
    },
    {
      "bufferView": 2,
      "byteOffset": 13800,
      "componentType": 5126,
      "count": 726,
      "max": [
        0.7574144005775452,
        0.8266990780830383,
        0.7718615531921387
      ],
      "min": [
        -0.7708260416984558,
        -0.8244010806083679,
        -0.7787039875984192
      ],
      "type": "VEC3"
    },
    {
      "bufferView": 3,
      "componentType": 5126,
      "count": 726,
      "max": [
        1.0,
        0.0,
        0.7770118713378906,
        1.0
      ],
      "min": [
        -0.8010359406471252,
        -0.8454017639160156,
        -0.6966332793235779,
        -1.0
      ],
      "type": "VEC4"
    },
    {
      "bufferView": 1,
      "byteOffset": 1696,
      "componentType": 5126,
      "count": 726,
      "max": [
        1.0019813776016235,
        12.687189102172852
      ],
      "min": [
        0.0039979517459869385,
        -11.687189102172852
      ],
      "type": "VEC2"
    },
    {
      "bufferView": 0,
      "byteOffset": 1656,
      "componentType": 5125,
      "count": 2880,
      "type": "SCALAR"
    }
  ],
  "asset": {
    "extras": {
      "author": "Johana-PS (https://sketchfab.com/Johana-PS)",
      "license": "CC-BY-4.0 (http://creativecommons.org/licenses/by/4.0/)",
      "source": "https://sketchfab.com/3d-models/id-card-model-5addf1256a404b7a82c380bb2d22f186",
      "title": "ID Card Model"
    },
    "generator": "Sketchfab-12.65.0",
    "version": "2.0"
  },
  "bufferViews": [
    {
      "buffer": 0,
      "byteLength": 13176,
      "name": "floatBufferViews",
      "target": 34963
    },
    {
      "buffer": 0,
      "byteLength": 7504,
      "byteOffset": 13176,
      "byteStride": 8,
      "name": "floatBufferViews",
      "target": 34962
    },
    {
      "buffer": 0,
      "byteLength": 22512,
      "byteOffset": 20680,
      "byteStride": 12,
      "name": "floatBufferViews",
      "target": 34962
    },
    {
      "buffer": 0,
      "byteLength": 11616,
      "byteOffset": 43192,
      "byteStride": 16,
      "name": "floatBufferViews",
      "target": 34962
    }
  ],
  "buffers": [
    {
      "byteLength": 54808,
      "uri": "scene.bin"
    }
  ],
  "extensionsUsed": [
    "KHR_materials_clearcoat",
    "KHR_materials_transmission"
  ],
  "images": [
    {
      "uri": "textures/Employee_Id_Card_Design_baseColor.png"
    },
    {
      "uri": "textures/Employee_Id_Card_Design_metallicRoughness.png"
    },
    {
      "uri": "textures/Ribbon_baseColor.png"
    },
    {
      "uri": "textures/Ribbon_metallicRoughness.png"
    },
    {
      "uri": "textures/Ribbon_normal.png"
    }
  ],
  "materials": [
    {
      "alphaMode": "BLEND",
      "name": "Employee_Id_Card_Design",
      "pbrMetallicRoughness": {
        "baseColorFactor": [
          1.0,
          1.0,
          1.0,
          0.9788361486621849
        ],
        "baseColorTexture": {
          "index": 0
        },
        "metallicFactor": 0.35976136200021186,
        "metallicRoughnessTexture": {
          "index": 1
        },
        "roughnessFactor": 0.6268132307563571
      }
    },
    {
      "alphaMode": "BLEND",
      "extensions": {
        "KHR_materials_clearcoat": {
          "clearcoatFactor": 0.9606280667015387,
          "clearcoatRoughnessFactor": 0.0
        },
        "KHR_materials_transmission": {
          "transmissionFactor": 1.0
        }
      },
      "name": "Plastic",
      "pbrMetallicRoughness": {
        "baseColorFactor": [
          0.8,
          0.8,
          0.8,
          0.25
        ],
        "metallicFactor": 0.0,
        "roughnessFactor": 0.523636
      }
    },
    {
      "name": "Ribbon",
      "normalTexture": {
        "index": 4
      },
      "pbrMetallicRoughness": {
        "baseColorTexture": {
          "index": 2
        },
        "metallicRoughnessTexture": {
          "index": 3
        },
        "roughnessFactor": 0.612727
      }
    }
  ],
  "meshes": [
    {
      "name": "Object_0",
      "primitives": [
        {
          "attributes": {
            "NORMAL": 1,
            "POSITION": 0,
            "TEXCOORD_0": 2
          },
          "indices": 3,
          "material": 0,
          "mode": 4
        }
      ]
    },
    {
      "name": "Object_1",
      "primitives": [
        {
          "attributes": {
            "NORMAL": 5,
            "POSITION": 4,
            "TEXCOORD_0": 6
          },
          "indices": 7,
          "material": 1,
          "mode": 4
        }
      ]
    },
    {
      "name": "Object_2",
      "primitives": [
        {
          "attributes": {
            "NORMAL": 9,
            "POSITION": 8,
            "TANGENT": 10,
            "TEXCOORD_0": 11
          },
          "indices": 12,
          "material": 2,
          "mode": 4
        }
      ]
    }
  ],
  "nodes": [
    {
      "children": [
        1
      ],
      "matrix": [
        1.0,
        0.0,
        0.0,
        0.0,
        0.0,
        2.220446049250313e-16,
        -1.0,
        0.0,
        0.0,
        1.0,
        2.220446049250313e-16,
        0.0,
        0.0,
        0.0,
        0.0,
        1.0
      ],
      "name": "Sketchfab_model"
    },
    {
      "children": [
        2
      ],
      "name": "root"
    },
    {
      "children": [
        3,
        5,
        7
      ],
      "matrix": [
        1.0,
        0.0,
        0.0,
        0.0,
        0.0,
        2.220446049250313e-16,
        1.0,
        0.0,
        0.0,
        -1.0,
        2.220446049250313e-16,
        0.0,
        0.0,
        0.0,
        0.0,
        1.0
      ],
      "name": "GLTF_SceneRootNode"
    },
    {
      "children": [
        4
      ],
      "matrix": [
        -2.9802322387695313e-08,
        2.980232327587373e-08,
        -0.9999999999999991,
        0.0,
        0.9999999999999991,
        -2.9802322387695313e-08,
        -2.980232327587373e-08,
        0.0,
        -2.980232327587373e-08,
        -0.9999999999999991,
        -2.9802322387695313e-08,
        0.0,
        0.0,
        0.0,
        0.0,
        1.0
      ],
      "name": "Employee Id Card Design_2"
    },
    {
      "mesh": 0,
      "name": "Object_4"
    },
    {
      "children": [
        6
      ],
      "matrix": [
        0.0,
        0.0,
        -1.05864679813385,
        0.0,
        1.05864679813385,
        0.0,
        0.0,
        0.0,
        0.0,
        -1.05864679813385,
        0.0,
        0.0,
        0.0026705500204116106,
        0.0,
        0.0,
        1.0
      ],
      "name": "Plastic Wrap_3"
    },
    {
      "mesh": 1,
      "name": "Object_6"
    },
    {
      "children": [
        8
      ],
      "matrix": [
        2.9802322387695313e-08,
        -0.9999999999999991,
        2.980232327587373e-08,
        0.0,
        -2.980232327587373e-08,
        2.9802322387695313e-08,
        0.9999999999999991,
        0.0,
        -0.9999999999999991,
        -2.980232327587373e-08,
        -2.9802322387695313e-08,
        0.0,
        -0.15667283535003662,
        0.53086256980896,
        0.0,
        1.0
      ],
      "name": "Ribbon_4"
    },
    {
      "mesh": 2,
      "name": "Object_8"
    }
  ],
  "samplers": [
    {
      "magFilter": 9729,
      "minFilter": 9987,
      "wrapS": 10497,
      "wrapT": 10497
    }
  ],
  "scene": 0,
  "scenes": [
    {
      "name": "Sketchfab_Scene",
      "nodes": [
        0
      ]
    }
  ],
  "textures": [
    {
      "sampler": 0,
      "source": 0
    },
    {
      "sampler": 0,
      "source": 1
    },
    {
      "sampler": 0,
      "source": 2
    },
    {
      "sampler": 0,
      "source": 3
    },
    {
      "sampler": 0,
      "source": 4
    }
  ]
}
